<?xml version="1.0" encoding="utf-8"?>
<!-- Generator: Adobe Illustrator 24.3.0, SVG Export Plug-In . SVG Version: 6.00 Build 0)  -->
<svg version="1.1" xmlns="http://www.w3.org/2000/svg" xmlns:xlink="http://www.w3.org/1999/xlink" x="0px" y="0px"
	 viewBox="0 0 300 300" style="enable-background:new 0 0 300 300;" xml:space="preserve">
<style type="text/css">
	.st0{display:none;fill:#FFFFFF;}
</style>
<g id="Layer_1">
	<g>
		<path class="st0" d="M14.9,2.5c90,0,180.1,0,270.1,0c0,98.3,0,196.6,0,294.9c-90,0-180.1,0-270.1,0
			C14.9,199.2,14.9,100.9,14.9,2.5z M269.1,152.2c0-21.5,0-42.9,0.1-64.4c0-2.5-0.8-4.1-2.9-5.1c-0.8-0.4-1.5-0.8-2.2-1.2
			c-0.9-0.6-1.7-1.7-2.6-1.8c-1.3-0.1-1.9-1.1-2.9-1.5c-1.8-0.8-3.4-2-5.1-3c-0.7-0.4-1.5-0.8-2.2-1.2c-0.9-0.6-1.7-1.3-2.7-1.8
			c-1.1-0.5-2.3-0.9-3.4-1.3c-0.1,0-0.1-0.1-0.2-0.2c-0.9-0.6-1.7-1.3-2.6-1.8c-0.8-0.5-1.8-0.8-2.6-1.4c-1.3-0.9-2.6-2-3.9-2.8
			c-1-0.6-2.2-0.9-3.3-1.3c-0.1,0-0.3-0.1-0.4-0.2c-0.7-1-1.7-1.4-2.7-2c-0.8-0.4-1.7-0.8-2.5-1.2c-1.1-0.5-2.1-1.3-3.1-1.9
			c-0.8-0.4-1.6-0.8-2.4-1.2c-0.9-0.6-1.6-1.3-2.5-1.9c-0.8-0.5-1.7-0.8-2.6-1.2c-0.1-0.1-0.2-0.1-0.3-0.2c-0.9-0.6-1.8-1.5-2.8-1.8
			c-1.3-0.5-2.4-1.2-3.5-2c-1.2-0.8-2.4-1.9-3.8-2.3c-1.8-0.5-2.7-2.4-4.7-2.4c-0.4-1.5-2.4-0.6-2.8-2c-1.9,0-2.7-2.2-4.6-2.5
			c-1-0.2-1.8-1.2-2.8-1.8c-0.9-0.5-1.9-0.8-2.7-1.3c-1.6-1-3.1-2-4.7-3c-0.4-0.3-0.8-0.8-1.3-1c-1.1-0.5-2.2-0.8-3.3-1.3
			c-0.1,0-0.2-0.1-0.2-0.1c-0.4-1.4-2.2-0.7-2.9-1.9c-0.4-0.7-1.6-0.8-2.4-1.3c-0.9-0.6-1.7-1.3-2.5-1.9c-0.6-0.4-1.2-0.8-1.9-1.1
			c-1-0.5-2.4-0.6-3.1-1.3c-1-1-2.5-1-3.2-2.1c-0.5-0.7-1.1-0.9-1.9-1.1c-0.2,0-0.3-0.2-0.4-0.3c-0.9-0.6-1.8-1.2-2.7-1.7
			c-0.9-0.6-1.9-1.1-2.9-1.6c-1-0.6-2.1-1.3-3.2-1.6c-0.8-0.2-1.8,0-2.7,0.3c-1.1,0.4-2.1,1.2-3.1,1.7c-0.8,0.5-1.7,0.9-2.5,1.3
			c-1,0.6-2.1,1.2-3.1,1.9c-0.4,0.2-0.8,0.5-1.1,0.8c-1.2,0.8-2.5,1.7-3.8,2.4c-1,0.6-2.2,0.9-3.3,1.3c-0.1,0-0.2,0.2-0.3,0.3
			c-0.6,0.5-1.2,1.1-1.9,1.4c-1,0.6-2.1,1-3.2,1.5c-0.6,0.3-1,0.7-1.6,1.1c-0.9,0.6-1.8,1.3-2.8,1.8c-1.1,0.5-2.2,0.9-3.3,1.3
			c-0.1,0-0.1,0.1-0.2,0.2c-0.7,0.9-1.6,1.5-2.7,1.9c-0.9,0.3-1.7,0.8-2.5,1.3c-1,0.6-2,1.3-3.1,1.8c-0.8,0.5-1.7,0.8-2.5,1.3
			c-1,0.6-1.9,1.3-2.8,1.9c-0.4,0.3-0.6,0.7-1,0.9c-1.1,0.5-2.2,0.9-3.3,1.3c-0.1,0-0.2,0.1-0.3,0.1c-0.9,0.7-1.7,1.4-2.6,2
			c-1.7,1.1-3.8,1.7-5.4,3.1c-1.6,1.4-3.7,1.8-5.4,3.2c-0.9,0.7-2.2,0.9-3.3,1.3c-0.1,0-0.3,0.1-0.4,0.2c-1.2,0.9-2.4,2-3.7,2.8
			c-1.5,0.9-3.4,1.3-4.8,2.4c-0.8,0.6-1.6,0.7-2.3,1.1c-1,0.5-1.9,1.2-2.8,1.9c-0.4,0.3-0.6,0.8-1,0.9c-1.1,0.5-2.2,0.9-3.4,1.3
			c-0.1,0-0.2,0-0.2,0.1c-0.6,1.3-2.1,1.1-3,1.9c-0.6,0.6-1.6,0.8-2.4,1.3c-0.9,0.6-1.6,1.3-2.4,1.9c-0.5,0.4-1.1,0.8-1.7,1
			c-1.1,0.5-2.2,0.9-3.3,1.3c-0.1,0-0.1,0.2-0.2,0.2c-0.4,0.3-0.9,0.6-1.3,0.8c-0.2,0.1-0.6,0.1-0.8,0.2c-1.4,0.9-2.7,1.9-4.1,2.8
			c-0.9,0.6-2,1-2.9,1.6c-1.4,0.9-2.8,1.8-4.3,2.7c-1.4,0.8-3.1,1.4-4.4,2.3c-1.4,0.9-2.4,2-2.4,4.1c0.1,43.1,0.1,86.2,0.1,129.3
			c0,1.8-0.4,3.7,1.8,4.8c1.4,0.7,2.5,1.9,3.8,2.7c1,0.6,2.2,0.9,3.4,1.3c0.1,0,0.2,0.1,0.2,0.1c1,1.6,2.9,1.7,4.2,2.9
			c0.8,0.7,1.8,1.2,2.8,1.7c0.6,0.3,1.2,0.5,1.8,0.8c1,0.6,1.8,1.3,2.8,1.8c1,0.5,2.2,0.9,3.3,1.3c0.1,0,0.1,0.1,0.2,0.2
			c0.8,0.6,1.5,1.2,2.4,1.7c0.9,0.5,1.9,0.8,2.8,1.4c1.3,0.9,2.5,2.2,3.9,2.8c1.6,0.6,3,1.4,4.4,2.2c0.7,0.5,1.6,0.8,2.3,1.2
			c0.1,0,0.1,0.1,0.2,0.2c0.9,0.6,1.8,1.3,2.8,1.8c0.9,0.5,1.8,0.8,2.7,1.3c1.6,1,3.2,2,4.8,3c0.5,0.3,0.8,0.7,1.3,1
			c1,0.5,2.1,0.9,3.1,1.3c0.1,0,0.2,0.1,0.2,0.2c0.1,1,0.9,0.7,1.5,0.9c0.2,0,0.5,0.1,0.7,0.2c0.9,0.6,1.8,1.3,2.7,1.9
			c0.4,0.3,0.8,0.7,1.3,1c1,0.5,2.1,1,3.2,1.5c0.5,0.3,1.4,0.5,1.5,0.9c0.5,1.4,2.1,0.7,2.8,1.8c0.6,0.8,2.1,0.9,3.2,1.4
			c0.1,0.1,0.2,0.3,0.4,0.4c1.3,0.9,2.4,2,3.8,2.5c1.1,0.4,1.9,1.2,2.9,1.7c1,0.6,2,1.1,3,1.6c1,0.5,2.2,0.7,2.9,1.4
			c1.5,1.5,3.2,2.2,5.1,2.9c0.1,0,0.3,0.1,0.4,0.1c0.5,1.4,2.2,0.9,3,1.9c0.5,0.6,1.6,0.8,2.4,1.3c0.9,0.6,1.7,1.3,2.5,1.9
			c0.6,0.4,1.1,0.7,1.7,1c1,0.5,2.4,0.6,3.1,1.3c0.9,1.1,2.4,1.1,3.3,2c0.6,0.6,1.5,0.9,2.3,1.4c0.9,0.6,1.8,1.2,2.7,1.7
			c1,0.6,2,1.3,3.1,1.8c1.3,0.6,2.6,1.4,3.9,1.4c1.3,0,2.8-0.6,3.8-1.4c1.3-1.1,2.8-1.7,4.1-2.6c1.3-0.9,3-1.4,4.4-2.3
			c0.4-0.3,0.6-0.8,1-0.9c1.1-0.5,2.2-0.9,3.3-1.3c0.1,0,0.2-0.1,0.3-0.1c0.9-0.7,1.8-1.3,2.7-2c0.5-0.3,0.9-0.7,1.5-0.9
			c1-0.5,2.1-0.9,3-1.4c0.6-0.3,1-0.7,1.6-1.1c0.9-0.6,1.8-1.3,2.7-1.8c1.1-0.5,2.2-0.9,3.3-1.3c0.1,0,0.1-0.1,0.2-0.2
			c0.9-0.7,1.8-1.4,2.8-2c0.7-0.5,1.5-0.7,2.3-1.2c0.9-0.6,1.7-1.3,2.6-1.8c0.7-0.4,1.4-0.7,2.1-1.1c1.1-0.6,2.1-1.3,3.2-1.9
			c1.3-0.8,2.5-1.6,3.8-2.3c1-0.5,2.2-0.9,3.3-1.3c0.1,0,0.1-0.1,0.2-0.2c0.7-0.6,1.4-1.2,2.2-1.7c1.1-0.8,2.5-1.2,3.6-2.1
			c1.6-1.4,3.8-2,5.5-3.3c0.9-0.7,2.2-0.9,3.3-1.3c0.1,0,0.3-0.1,0.4-0.2c1.2-0.9,2.4-2,3.7-2.8c1.5-0.9,3.4-1.4,4.8-2.4
			c0.8-0.6,1.5-0.7,2.3-1.1c1-0.5,1.9-1.3,2.8-2c0.4-0.3,0.6-0.7,1-0.9c1.1-0.5,2.2-0.9,3.4-1.3c0.1,0,0.2-0.1,0.2-0.1
			c0.5-1.4,2.2-0.8,2.9-1.9c0.3-0.5,1-0.7,1.6-1.1c1-0.5,2-1,3-1.6c0.9-0.6,1.6-1.7,2.9-1.7c0.2,0,0.3-0.1,0.5-0.2
			c0.9-0.6,1.8-1.3,2.8-1.9c1.1-0.6,2.3-1.1,3.4-1.7c0.9-0.5,1.8-1,2.7-1.6c1.3-0.7,2.6-1.5,3.9-2.2c0.3-0.2,0.5-0.7,0.9-0.8
			c1.1-0.5,2.5-0.6,3.1-1.4c0.9-1,2.2-1.1,3-1.9c1.2-1.2,2.5-2,2.5-4.2C269.1,195.7,269.1,174,269.1,152.2z"/>
		<path d="M269.1,152.2c0,21.8,0,43.5,0.1,65.3c0,2.2-1.3,3-2.5,4.2c-0.9,0.9-2.1,0.9-3,1.9c-0.7,0.8-2.1,0.9-3.1,1.4
			c-0.3,0.2-0.5,0.6-0.9,0.8c-1.3,0.8-2.6,1.5-3.9,2.2c-0.9,0.5-1.8,1.1-2.7,1.6c-1.1,0.6-2.3,1.1-3.4,1.7c-1,0.6-1.9,1.2-2.8,1.9
			c-0.1,0.1-0.3,0.2-0.5,0.2c-1.3,0-2,1.1-2.9,1.7c-0.9,0.6-2,1-3,1.6c-0.6,0.3-1.3,0.6-1.6,1.1c-0.7,1.1-2.4,0.5-2.9,1.9
			c0,0.1-0.1,0.1-0.2,0.1c-1.1,0.4-2.3,0.8-3.4,1.3c-0.4,0.2-0.7,0.6-1,0.9c-0.9,0.7-1.8,1.4-2.8,2c-0.7,0.4-1.5,0.5-2.3,1.1
			c-1.4,1.1-3.2,1.5-4.8,2.4c-1.3,0.8-2.5,1.8-3.7,2.8c-0.1,0.1-0.2,0.1-0.4,0.2c-1.1,0.4-2.4,0.6-3.3,1.3c-1.7,1.3-3.9,1.9-5.5,3.3
			c-1.1,0.9-2.4,1.3-3.6,2.1c-0.8,0.5-1.4,1.1-2.2,1.7c-0.1,0.1-0.1,0.1-0.2,0.2c-1.1,0.4-2.3,0.7-3.3,1.3c-1.3,0.7-2.5,1.5-3.8,2.3
			c-1.1,0.6-2.1,1.3-3.2,1.9c-0.7,0.4-1.4,0.7-2.1,1.1c-0.9,0.6-1.7,1.3-2.6,1.8c-0.7,0.4-1.6,0.7-2.3,1.2c-1,0.6-1.8,1.3-2.8,2
			c-0.1,0.1-0.1,0.1-0.2,0.2c-1.1,0.4-2.3,0.7-3.3,1.3c-1,0.5-1.8,1.2-2.7,1.8c-0.5,0.4-1,0.8-1.6,1.1c-1,0.5-2,0.9-3,1.4
			c-0.5,0.3-1,0.6-1.5,0.9c-0.9,0.6-1.8,1.3-2.7,2c-0.1,0.1-0.2,0.1-0.3,0.1c-1.1,0.4-2.2,0.8-3.3,1.3c-0.4,0.2-0.6,0.7-1,0.9
			c-1.4,1-3,1.5-4.4,2.3c-1.4,0.9-2.9,1.5-4.1,2.6c-1,0.8-2.5,1.4-3.8,1.4c-1.3,0-2.6-0.8-3.9-1.4c-1.1-0.5-2.1-1.1-3.1-1.8
			c-0.9-0.6-1.8-1.2-2.7-1.7c-0.8-0.5-1.7-0.8-2.3-1.4c-0.9-1-2.3-1-3.3-2c-0.7-0.8-2.1-0.9-3.1-1.3c-0.6-0.3-1.2-0.6-1.7-1
			c-0.9-0.6-1.6-1.3-2.5-1.9c-0.8-0.5-1.8-0.7-2.4-1.3c-0.8-1-2.5-0.6-3-1.9c0-0.1-0.2-0.1-0.4-0.1c-1.9-0.7-3.6-1.5-5.1-2.9
			c-0.7-0.7-1.9-0.9-2.9-1.4c-1-0.5-2-1-3-1.6c-1-0.6-1.8-1.3-2.9-1.7c-1.4-0.5-2.6-1.7-3.8-2.5c-0.1-0.1-0.2-0.3-0.4-0.4
			c-1.1-0.4-2.7-0.5-3.2-1.4c-0.8-1.1-2.4-0.5-2.8-1.8c-0.1-0.4-1-0.7-1.5-0.9c-1.1-0.5-2.1-0.9-3.2-1.5c-0.5-0.2-0.9-0.7-1.3-1
			c-0.9-0.7-1.8-1.3-2.7-1.9c-0.2-0.1-0.4-0.1-0.7-0.2c-0.6-0.1-1.4,0.1-1.5-0.9c0-0.1-0.1-0.1-0.2-0.2c-1.1-0.4-2.1-0.8-3.1-1.3
			c-0.5-0.2-0.9-0.7-1.3-1c-1.6-1-3.2-2.1-4.8-3c-0.8-0.5-1.8-0.8-2.7-1.3c-1-0.5-1.9-1.2-2.8-1.8c-0.1,0-0.1-0.1-0.2-0.2
			c-0.8-0.4-1.6-0.8-2.3-1.2c-1.4-0.9-2.8-1.7-4.4-2.2c-1.5-0.5-2.6-1.9-3.9-2.8c-0.9-0.6-1.9-0.9-2.8-1.4c-0.8-0.5-1.6-1.1-2.4-1.7
			c-0.1,0-0.1-0.2-0.2-0.2c-1.1-0.4-2.2-0.8-3.3-1.3c-1-0.5-1.9-1.2-2.8-1.8c-0.6-0.3-1.2-0.5-1.8-0.8c-0.9-0.5-2-1-2.8-1.7
			c-1.3-1.2-3.2-1.3-4.2-2.9c0-0.1-0.1-0.1-0.2-0.1c-1.1-0.4-2.3-0.7-3.4-1.3c-1.3-0.8-2.4-2-3.8-2.7c-2.2-1.1-1.8-3-1.8-4.8
			c0-43.1,0-86.2-0.1-129.3c0-2.1,1.1-3.2,2.4-4.1c1.4-0.9,3-1.5,4.4-2.3c1.5-0.8,2.8-1.8,4.3-2.7c1-0.6,2-1,2.9-1.6
			c1.4-0.9,2.7-1.9,4.1-2.8c0.2-0.1,0.5-0.1,0.8-0.2c0.5-0.2,0.9-0.5,1.3-0.8c0.1,0,0.1-0.2,0.2-0.2c1.1-0.4,2.2-0.8,3.3-1.3
			c0.6-0.3,1.2-0.7,1.7-1c0.8-0.6,1.6-1.3,2.4-1.9c0.8-0.5,1.7-0.7,2.4-1.3c0.9-0.9,2.5-0.6,3-1.9c0-0.1,0.2-0.1,0.2-0.1
			c1.1-0.4,2.3-0.8,3.4-1.3c0.4-0.2,0.6-0.7,1-0.9c0.9-0.7,1.8-1.4,2.8-1.9c0.7-0.4,1.5-0.5,2.3-1.1c1.4-1.1,3.2-1.5,4.8-2.4
			c1.3-0.8,2.5-1.8,3.7-2.8c0.1-0.1,0.2-0.1,0.4-0.2c1.1-0.4,2.4-0.6,3.3-1.3c1.7-1.3,3.8-1.8,5.4-3.2c1.6-1.4,3.7-2,5.4-3.1
			c0.9-0.6,1.8-1.3,2.6-2c0.1-0.1,0.2-0.1,0.3-0.1c1.1-0.4,2.2-0.8,3.3-1.3c0.4-0.2,0.7-0.6,1-0.9c0.9-0.7,1.8-1.3,2.8-1.9
			c0.8-0.5,1.7-0.8,2.5-1.3c1-0.6,2-1.2,3.1-1.8c0.8-0.5,1.6-1,2.5-1.3c1.1-0.4,2-1,2.7-1.9c0.1-0.1,0.1-0.1,0.2-0.2
			c1.1-0.4,2.3-0.8,3.3-1.3c1-0.5,1.8-1.2,2.8-1.8c0.5-0.4,1-0.8,1.6-1.1c1-0.5,2.1-0.9,3.2-1.5c0.7-0.4,1.3-0.9,1.9-1.4
			c0.1-0.1,0.2-0.2,0.3-0.3c1.1-0.5,2.3-0.8,3.3-1.3c1.3-0.7,2.5-1.6,3.8-2.4c0.4-0.2,0.8-0.5,1.1-0.8c1-0.6,2-1.3,3.1-1.9
			c0.8-0.5,1.7-0.9,2.5-1.3c1.1-0.6,2-1.3,3.1-1.7c0.8-0.3,1.9-0.6,2.7-0.3c1.1,0.3,2.1,1,3.2,1.6c1,0.5,1.9,1,2.9,1.6
			c0.9,0.5,1.8,1.2,2.7,1.7c0.1,0.1,0.3,0.2,0.4,0.3c0.8,0.1,1.4,0.3,1.9,1.1c0.7,1.1,2.3,1,3.2,2.1c0.7,0.8,2.1,0.9,3.1,1.3
			c0.7,0.3,1.3,0.7,1.9,1.1c0.9,0.6,1.6,1.3,2.5,1.9c0.8,0.5,2,0.6,2.4,1.3c0.7,1.2,2.5,0.5,2.9,1.9c0,0.1,0.1,0.1,0.2,0.1
			c1.1,0.4,2.3,0.8,3.3,1.3c0.5,0.2,0.8,0.7,1.3,1c1.5,1,3.1,2.1,4.7,3c0.9,0.5,1.9,0.8,2.7,1.3c1,0.6,1.8,1.7,2.8,1.8
			c1.9,0.3,2.6,2.5,4.6,2.5c0.4,1.4,2.5,0.5,2.8,2c2-0.1,2.9,1.9,4.7,2.4c1.4,0.4,2.5,1.5,3.8,2.3c1.1,0.7,2.2,1.5,3.5,2
			c1,0.4,1.9,1.2,2.8,1.8c0.1,0.1,0.2,0.2,0.3,0.2c0.9,0.4,1.8,0.7,2.6,1.2c0.9,0.5,1.6,1.3,2.5,1.9c0.7,0.5,1.6,0.8,2.4,1.2
			c1,0.6,2,1.4,3.1,1.9c0.9,0.4,1.7,0.8,2.5,1.2c1,0.5,2,1,2.7,2c0.1,0.1,0.2,0.1,0.4,0.2c1.1,0.4,2.3,0.7,3.3,1.3
			c1.4,0.8,2.6,1.9,3.9,2.8c0.8,0.5,1.8,0.9,2.6,1.4c0.9,0.5,1.7,1.2,2.6,1.8c0.1,0.1,0.1,0.1,0.2,0.2c1.1,0.4,2.3,0.8,3.4,1.3
			c1,0.5,1.8,1.2,2.7,1.8c0.7,0.5,1.5,0.8,2.2,1.2c1.7,1,3.3,2.2,5.1,3c1,0.4,1.6,1.5,2.9,1.5c0.9,0,1.7,1.2,2.6,1.8
			c0.7,0.5,1.4,0.9,2.2,1.2c2.2,1,2.9,2.6,2.9,5.1C269.1,109.3,269.1,130.8,269.1,152.2z M100.9,89.6c0.8-0.5,1.7-1,2.5-1.5
			c0.8-0.4,1.8-0.7,2.4-1.3c0.9-1,2.2-1.1,3.2-1.8c0.9-0.6,2.1-0.9,3-1.6c0.9-0.7,1.6-1.6,2.9-1.8c0.9-0.2,1.9-0.6,2.4-1.3
			c1.2-1.5,3.1-1.7,4.5-2.8c1-0.7,2.1-1.3,3.1-1.9c1.3-0.8,2.5-1.6,3.8-2.3c1-0.5,2.1-0.9,3.2-1.3c0.1,0,0.2-0.2,0.3-0.3
			c0.8-0.6,1.5-1.2,2.3-1.7c1.2-0.6,2.5-1,3.4-2c0.4-0.5,1.1-0.8,1.8-1.1c1.1-0.5,2.2-0.8,3.2-1.3c0.1,0,0.1-0.3,0.2-0.3
			c0.3-0.2,0.6-0.5,1-0.6c0.3-0.1,0.8-0.1,0.9-0.2c0.5-1.3,2.2-0.9,3-1.9c0.5-0.7,1.6-0.9,2.4-1.4c1-0.6,1.9-1.3,2.9-1.8
			c0.8-0.5,1.7-0.8,2.5-1.3c1-0.6,1.9-1.3,2.8-2c0.9-0.6,1.8-1.3,2.8-1.8c0.9-0.5,1.8-0.9,2.7-1.3c1-0.5,2.2-0.8,3.1-1.4
			c1.4-0.9,2.6-2,4-2.9c1.4-0.9,3-1.5,4.4-2.3c0.2-0.1,0.3-0.8,0.2-0.8c-1.2-0.8-2.5-1.5-3.7-2.2c-1.2-0.7-2.4-1.5-3.6-2.1
			c-0.9-0.5-1.8-0.8-2.6-1.2c-0.1-0.1-0.3-0.1-0.4-0.2c-0.9-0.6-1.7-1.3-2.6-1.9c-0.9-0.5-1.9-0.8-2.8-1.2c-0.7-0.3-1.5-0.7-2.1-1.2
			c-1.5-1.3-3.1-2.4-5-3c-0.2,0-0.3-0.2-0.5-0.2c-0.6-0.3-1.1-0.7-1.7-0.8c-1.1-0.2-2,0.4-3,0.9c-1.1,0.6-2.2,1.3-3.3,1.9
			c-0.9,0.5-1.8,1-2.7,1.5c-0.8,0.5-1.6,1.1-2.4,1.6c-0.8,0.5-1.7,1.1-2.6,1.5c-1.1,0.5-2.4,0.6-3.2,1.4c-2.1,1.9-4.4,3.2-7,4.1
			c-0.2,0.1-0.3,0.1-0.5,0.3c-0.6,0.5-1.2,1.3-1.9,1.6c-1.5,0.5-2.6,1.7-4,2.1c-1.8,0.5-2.6,2.5-4.6,2.5c-0.3,1.2-1.7,0.6-2.2,1.2
			c-0.8,1.1-2.3,1-3.2,1.9c-0.6,0.6-1.5,0.8-2.2,1.3c-1.3,0.9-2.5,2-3.9,2.8c-1,0.6-2.2,0.9-3.3,1.3c-0.1,0-0.3,0-0.4,0.1
			c-0.9,0.6-1.8,1.3-2.7,2c-0.5,0.3-0.9,0.7-1.4,1c-1,0.5-2.1,0.9-3.2,1.5c-1.1,0.6-2.1,1.3-3.2,1.9c-0.8,0.4-1.6,0.7-2.4,1.2
			c-0.9,0.6-1.7,1.3-2.5,1.9c-0.5,0.4-0.9,0.7-1.5,1c-1.1,0.5-2.2,0.9-3.3,1.3c-0.1,0-0.2,0.2-0.3,0.3c-0.4,0.3-0.8,0.6-1.2,0.8
			c-0.2,0.1-0.7,0-0.8,0.2c-0.7,1.1-1.8,1.5-3,2c-0.8,0.3-1.8,0.7-2.4,1.3c-0.9,0.9-1.9,1.5-3,2c-0.8,0.4-2.1,0.8-2.3,1.1
			c-0.5,1.5-2.1,0.8-3,1.8c-1,1.2-3,1.6-4.5,2.5c-1.1,0.6-2,1.3-3.1,1.9c-0.8,0.5-1.7,0.8-2.5,1.3c-1.1,0.6-2.2,1.4-3.3,2
			c-0.6,0.4-1.3,0.7-1.9,1.2c-0.1,0.1-0.2,0.6-0.1,0.6c1.3,0.8,2.5,1.7,3.8,2.4c1,0.5,2.2,0.8,3.1,1.4c1,0.7,1.8,1.7,3,2.1
			c0.9,0.3,1.7,0.8,2.4,1.3c1,0.6,1.6,1.7,2.9,1.7c0.2,0,0.4,0.2,0.6,0.3c0.4,0.3,0.8,0.5,1.2,0.8c0.2,0.1,0.6,0,0.8,0.2
			c1,0.6,1.9,1.3,2.9,1.9c0.8,0.5,1.6,0.9,2.4,1.3c0.9,0.6,1.8,1.3,2.8,1.8c0.9,0.5,1.8,0.8,2.7,1.3c1.6,1,3.2,2,4.8,3
			c0.5,0.3,1,0.7,1.6,1c1,0.5,2.2,0.7,3,1.3c1.2,1,2.5,1.7,4,2.2c0.1,0,0.2,0.1,0.2,0.1c1.3,0.9,2.5,2,3.8,2.7
			c1.6,0.9,3.3,1.6,4.9,2.4c1.3,0.7,2.6,1.4,3.9,2.1c0.1,0.1,0.3,0.2,0.4,0.3c0.9,1.5,2.8,1.7,4.1,2.6c0.9,0.6,2.1,0.9,3.2,1.4
			c0.1,0,0.1,0.3,0.2,0.3c0.5,0.2,1.1,0.5,1.4,0.3c0.8-0.4,1.5-1,2.2-1.5c0.8-0.5,1.7-1,2.6-1.4c1-0.5,2.2-1,3.1-1.6
			c1.3-0.8,2.5-1.9,3.8-2.7c1-0.6,2.2-0.9,3.3-1.3c0.1,0,0.3-0.1,0.4-0.2c1.4-1,2.7-2,4.1-2.9c0.8-0.6,1.8-1,2.6-1.5
			c0.9-0.5,1.7-1.2,2.6-1.7c1.1-0.5,2.2-0.9,3.3-1.3c0.1,0,0.2-0.1,0.2-0.2c0.7-1,1.6-1.6,2.7-2c0.9-0.3,1.7-0.8,2.5-1.3
			c0.9-0.6,1.8-1.2,2.8-1.8c0.5-0.3,0.9-0.7,1.4-0.9c1.2-0.7,2.3-1.4,3.5-2c0.9-0.5,1.8-0.9,2.7-1.4c0.2-0.1,0.4-0.2,0.6-0.3
			c0.9-0.6,1.8-1.2,2.8-1.7c1-0.6,2.2-0.9,3.2-1.5c1.5-0.9,2.9-1.9,4.4-2.8c0.8-0.5,1.6-0.8,2.4-1.2c0.9-0.6,1.7-1.4,2.6-1.9
			c1-0.6,2.2-0.9,3.3-1.3c0.1,0,0.3-0.1,0.4-0.2c1.5-2.2,4.2-2.4,6.1-3.9c0.4-0.3,0.9-0.7,1.4-1c1-0.5,2.1-0.9,3.1-1.3
			c0.1,0,0.2-0.2,0.3-0.3c0.7-1,1.3-0.5,2,0c1.3,0.9,2.6,1.8,4,2.5c1,0.6,2.2,0.9,3.3,1.3c0.1,0,0.2,0.1,0.2,0.1
			c0.6,1,1.5,1.7,2.6,1.9c0.2,0,0.4,0.3,0.6,0.5c-0.2,0.2-0.3,0.4-0.5,0.5c-0.8,0.4-2.1,0.7-2.4,1.3c-0.6,1.4-2.1,0.9-2.9,1.8
			c-1.1,1.2-3,1.6-4.5,2.5c-1.6,0.9-3.1,1.9-4.7,2.9c-0.5,0.3-0.9,0.8-1.4,1c-1.6,0.4-2.9,1.2-4.1,2.1c-0.5,0.4-1.2,0.8-1.8,1.1
			c-0.9,0.5-2.2,0.7-2.7,1.4c-0.7,1-1.6,0.6-2.2,1c-1.3,0.9-2.5,2.2-4,2.7c-2.4,0.9-4.1,3.2-6.7,3.5c-0.1,0-0.2,0.2-0.3,0.2
			c-1,0.6-2,1.2-3,1.8c-0.8,0.5-1.6,0.9-2.4,1.4c-0.9,0.6-1.8,1.2-2.8,1.7c-0.8,0.5-1.7,0.9-2.6,1.4c-1.1,0.6-2.1,1.3-3.2,1.9
			c-1,0.6-2,1.1-3,1.6c-0.9,0.5-1.5,1.4-2.6,1.7c-0.8,0.2-1.9,0.7-2.5,1.2c-1,0.9-2.4,1-3.3,1.9c-0.6,0.6-1.6,0.7-2.3,1.2
			c-1.3,0.9-2.4,2.1-3.7,2.8c-1.5,0.8-3.1,1.4-4.5,2.4c-0.7,0.5-0.7,0.8,0,1.2c1,0.6,2,1.3,3,2c0.5,0.4,1.1,0.8,1.6,1.1
			c1,0.5,2.2,0.8,3.2,1.4c1,0.5,1.9,1.3,2.8,1.9c0.4,0.3,0.9,0.7,1.3,0.9c1,0.5,2,0.9,3,1.4c0.6,0.3,1.1,0.7,1.7,1.1
			c0.9,0.6,1.8,1.3,2.7,1.8c1.1,0.5,2.2,0.8,3.3,1.3c0.1,0,0.2,0.2,0.2,0.3c0.6,0.8,2.4,0.8,3.2,0.3c0.9-0.7,1.9-1.2,2.9-1.8
			c0.9-0.5,1.8-0.9,2.7-1.4c1.1-0.6,2.2-1.3,3.3-1.9c0.3-0.2,0.6-0.3,0.9-0.5c1.3-0.8,2.5-1.8,3.8-2.5c1-0.6,2.2-0.9,3.3-1.3
			c0.1,0,0.2-0.1,0.2-0.1c0.9-0.6,1.8-1.3,2.7-1.9c0.5-0.3,0.9-0.7,1.4-1c1.1-0.6,2.3-1.2,3.4-1.8c0.7-0.4,1.3-1,2-1.3
			c1-0.5,2.1-0.8,3.2-1.3c0.1,0,0.1-0.1,0.2-0.2c0.8-0.6,1.7-1.3,2.6-1.8c0.8-0.5,1.8-0.8,2.6-1.3c0.9-0.6,1.8-1.3,2.8-1.8
			c1.5-0.8,3.1-1.5,4.7-2.3c0.9-0.5,1.6-1.2,2.4-1.7c1.3-0.8,2.6-1.7,3.9-2.4c1-0.5,2.2-0.9,3.2-1.3c0.1,0,0.2-0.2,0.3-0.3
			c1.4-0.9,2.7-1.8,4.1-2.7c0.8-0.5,1.6-0.9,2.4-1.4c0.9-0.6,1.8-1.3,2.7-1.8c1-0.5,2.2-0.9,3.3-1.3c0.1,0,0.2-0.1,0.2-0.2
			c1.2-1.6,2.9-2.3,4.8-2.9c0.2-0.1,0.4-0.1,0.5-0.2c0.7-1.2,2-1.3,3.1-2c0.8-0.5,1.6-0.8,2.4-1.3c1-0.6,1.9-1.3,2.8-1.9
			c0.4-0.3,0.8-0.7,1.2-0.9c1.1-0.5,2.2-0.8,3.2-1.3c0.1,0,0.2-0.1,0.2-0.2c0.1-1.1,0.9-0.8,1.6-0.9c0.2-0.1,0.4-0.2,0.6-0.3
			c1-0.6,1.9-1.3,2.9-1.8c0.8-0.5,1.7-0.8,2.5-1.3c1.3-0.9,2.5-2.1,3.9-2.8c1.5-0.7,2.9-1.3,4.2-2.3c0.7-0.6,0.7-0.7,0-1.1
			c-0.8-0.4-1.7-0.9-2.5-1.4c-0.9-0.6-1.7-1.3-2.7-1.8c-1.6-0.9-3.3-1.5-4.8-2.4c-1.1-0.6-2-1.3-3-2c-0.4-0.3-0.8-0.8-1.2-0.9
			c-1.2-0.2-1.8-1.6-3.1-1.3c0,0-0.2-0.1-0.2-0.2c-0.1-0.9-0.8-0.7-1.3-0.8c-0.2-0.1-0.5-0.1-0.7-0.3c-1.3-0.9-2.6-1.9-4-2.8
			c-1-0.6-2.1-1-3.1-1.5c-0.5-0.3-1.3-0.5-1.5-0.9c-0.7-1.2-2.1-1-3-1.8c-0.8-0.8-2.2-0.9-3.2-1.5c-1.3-0.8-2.4-2-3.8-2.7
			c-1.5-0.9-3.2-1.6-4.8-2.4c-0.8-0.4-1.6-0.7-2.3-1.2c-1-0.6-1.9-1.3-2.9-2c-0.4-0.3-0.6-0.8-1-0.9c-1.1-0.5-2.2-0.9-3.3-1.3
			c-0.1,0-0.1-0.1-0.2-0.2c-1-0.6-1.9-1.3-2.9-1.9c-0.8-0.5-1.7-0.7-2.4-1.2c-1.3-0.9-2.4-1.9-3.7-2.8c-0.4-0.3-1.2-0.3-1.6,0
			c-1,0.5-1.9,1.2-2.8,1.9c-0.5,0.3-0.9,0.7-1.4,1c-1,0.5-2.1,0.9-3.1,1.4c-0.1,0-0.1,0.1-0.2,0.2c-0.9,0.6-1.8,1.3-2.8,1.8
			c-1.5,0.8-3.2,1.4-4.6,2.4c-1.7,1.2-3.2,2.5-5.3,3c-0.1,0-0.2,0.2-0.4,0.3c-0.4,0.2-0.7,0.5-1.1,0.7c-0.2,0.1-0.6,0-0.8,0.1
			c-0.9,0.6-1.7,1.3-2.6,1.9c-0.5,0.4-1,0.8-1.5,1c-1,0.5-2.1,0.8-3.1,1.3c-0.6,0.3-1.1,0.8-1.6,1.1c-1,0.6-2,1.3-3.1,1.8
			c-1,0.5-2.2,0.7-3,1.4c-0.9,0.8-1.8,1.5-2.8,2c-0.8,0.5-1.7,0.7-2.5,1.1c-1.4,0.8-2.6,2.1-4,2.7c-1.5,0.7-3,1.3-4.3,2.4
			c-0.4,0.3-0.6,0.8-1,0.9c-1.5,0.5-2.8,1.5-4.2,2.1c-1.4,0.6-2.7,1.4-4,2.2c-0.5,0.3-1,0.7-1.6,1c-1.1,0.6-2.2,1.3-3.4,1.8
			c-1.1,0.4-1.6,1.8-3,1.6c-0.1,0-0.3,0.1-0.4,0.1c-1,0.6-1.9,1.3-2.9,1.9c-0.8,0.5-1.9,0.7-2.4,1.4c-0.9,1.1-2.2,0.9-2.9,0.5
			c-1.1-0.7-2.1-1.5-3.3-2.1c-1.3-0.7-2.4-1.7-3.9-2c-0.1,0-0.3,0-0.4-0.1C103,91.4,101.9,90.5,100.9,89.6z M180.7,170.6
			c0.8-0.2,1.4-0.1,1.9-0.5c1.3-0.9,2.4-2,3.8-2.8c1-0.6,2.1-0.9,3.2-1.4c0.2-0.1,0.3-0.3,0.5-0.4c0.6-0.5,1.1-1.1,1.8-1.3
			c1.5-0.5,2.7-1.4,4-2.2c1.5-0.9,2.8-2.1,4.6-2.3c0.1,0,0.2-0.1,0.3-0.1c0.9-0.6,1.7-1.4,2.7-1.9c1.5-0.9,3.1-1.5,4.6-2.5
			c1.7-1.1,3.3-2.5,5.4-3c0.1,0,0.2-0.2,0.3-0.2c0.4-0.3,0.8-0.6,1.2-0.8c0.2-0.1,0.6,0,0.8-0.2c1-0.6,1.9-1.3,2.9-2
			c0.4-0.3,0.7-0.7,1.1-1c1.2-0.7,2.4-1.4,3.6-2.1c0.7-0.4,1.4-0.8,2.1-1.2c1-0.5,2.2-0.7,3-1.3c1.6-1.1,3.2-2.3,5-3.2
			c0.8-0.4,1.6-0.7,2.4-1.1c1-0.5,1.8-1.3,2.6-1.9c0.5-0.4,1-0.7,1.6-1c1-0.5,2.1-1,3.2-1.5c0.5-0.3,0.9-0.6,1.4-0.9
			c0.9-0.6,1.7-1.4,2.7-1.9c1.1-0.6,2.3-0.9,3.4-1.3c0.1,0,0.2-0.1,0.2-0.2c0.7-1.7,2.5-2.1,3.9-2.7c1.5-0.6,1.7-1.3,1.7-2.6
			c0-8.8,0-17.5,0-26.3c0-0.4-0.1-0.8-0.1-1.3c-0.5,0.1-1,0.1-1.3,0.3c-1,0.6-2,1.3-3.1,1.9c-0.6,0.4-1.3,0.7-2,1.1
			c-1.5,0.9-2.9,1.9-4.4,2.8c-0.2,0.1-0.3,0.3-0.5,0.3c-1.1,0.4-2.2,0.8-3.3,1.3c-1,0.5-1.9,1.4-2.9,1.9c-1.5,0.9-3.1,1.5-4.5,2.5
			c-1.7,1.1-3.3,2.5-5.4,3c-0.1,0-0.2,0.1-0.2,0.1c-0.4,1.4-2.1,0.8-2.9,1.9c-0.5,0.7-1.7,0.9-2.5,1.4c-0.9,0.6-1.8,1.3-2.7,1.8
			c-0.9,0.5-1.9,0.8-2.7,1.3c-1.7,1-3.2,2-4.9,3c-0.8,0.5-1.7,0.8-2.6,1.3c-0.9,0.6-1.8,1.3-2.7,1.8c-1.1,0.6-2.4,0.7-3.4,1.4
			c-1.6,1.2-3.2,2.3-5,3.1c-0.6,0.3-1.2,0.7-1.8,1.1c-0.9,0.6-1.8,1.4-2.8,1.9c-1.1,0.5-2.2,0.9-3.3,1.3c-0.1,0-0.1,0.2-0.2,0.3
			c-1.2,0.9-2.3,2.1-3.7,2.6c-1.3,0.4-2.2,1.3-3.3,1.9c-0.8,0.4-1.5,1-2.3,1.4c-1.1,0.5-2.2,0.9-3.2,1.4c-0.5,0.3-1,0.8-1.5,1.2
			c-0.9,0.6-1.8,1.3-2.8,1.7c-1.1,0.5-2.2,0.9-3.3,1.3c-0.1,0-0.1,0.1-0.2,0.2c-1.3,0.9-2.6,1.9-3.9,2.8c-1,0.6-2,1.2-3,1.7
			c-0.9,0.5-1.8,1-2.8,1.5c-1,0.5-2.2,0.8-3.2,1.3c-1.1,0.6-2.2,1.5-3.4,2.4c0,0.4,0,0.9,0,1.5c0,23.5,0,46.9,0,70.4
			c0,0.5,0.3,0.9,0.5,1.4c0.5-0.2,1.1-0.4,1.6-0.7c0.6-0.4,1-1,1.7-1.3c1.1-0.5,2.2-0.8,3.3-1.3c0.1,0,0.2-0.1,0.2-0.1
			c0.2-1.6,1.9-0.9,2.8-1.9c1-1.2,2.9-1.6,4.4-2.5c0.5-0.3,1-0.7,1.5-1.1c0.9-0.6,1.8-1.3,2.8-1.8c1-0.5,2.2-0.9,3.3-1.3
			c0.1,0,0.2-0.1,0.2-0.2c1.2-1.6,2.9-2.4,4.7-3c0.2-0.1,0.4-0.1,0.5-0.2c0.9-0.6,1.7-1.3,2.6-1.9c0.6-0.4,1.2-0.7,1.8-1
			c1-0.5,2.2-0.8,3-1.5c0.9-0.8,1.8-1.5,2.9-2c0.8-0.3,2-0.6,2.4-1.1c0.9-1.2,2.3-1,3.3-1.9c0.7-0.7,1.7-1,2.6-1.5
			c0.9-0.5,1.7-1.1,2.5-1.7c0.4-0.3,0.7-0.7,1.1-0.9c1.1-0.5,2.2-0.9,3.3-1.3c0.1,0,0.2-0.1,0.2-0.1c0.4-1.4,2-0.9,2.9-1.9
			c1.1-1.2,3-1.6,4.5-2.5c1.4-0.8,2.5-2,3.9-2.8c1-0.6,2.2-0.9,3.4-1.3c0.1,0,0.3-0.1,0.4-0.2c1.2-1.6,3-2.4,4.9-3
			c0.2,0,0.4-0.1,0.4-0.3c0.4-1.2,1.4-0.7,2.2-0.8c0,4.6,0,9.2,0,13.7c-0.7,0.2-1.5,0.2-1.9,0.6c-0.8,0.8-1.5,1.6-2.7,1.9
			c-0.9,0.2-1.9,0.6-2.5,1.2c-1.4,1.6-3.6,1.7-5,3c-0.4,0.3-0.7,0.8-1.2,0.9c-1.2,0.3-2,1.1-2.9,1.8c-0.8,0.6-1.7,1-2.6,1.5
			c-1,0.5-2.1,0.8-3.1,1.4c-1.1,0.6-2.2,1.3-3.2,2c-0.9,0.6-1.8,1.3-2.7,1.9c-0.6,0.4-1.2,0.8-1.8,1.1c-0.5,0.3-1,0.6-1.5,0.9
			c-0.9,0.5-1.9,0.9-2.8,1.4c-1,0.5-2.1,0.9-3.1,1.5c-1.4,0.9-2.7,1.9-4.2,2.8c-0.8,0.5-1.8,0.7-2.5,1.3c-1.2,0.9-2.3,1.7-3.8,2.1
			c-0.2,0-0.3,0.2-0.4,0.3c-1.3,0.9-2.6,1.9-4,2.7c-1,0.6-2.1,0.9-3.1,1.4c-1.2,0.6-2.3,1.3-3.4,2c-0.7,0.4-1.5,0.8-2.3,1.3
			c-2,1.3-3.8,2.7-5.8,3.9c-1,0.6-2.2,0.9-3.3,1.3c-0.1,0-0.2,0.1-0.3,0.2c-1.4,0.9-2.7,1.8-4.1,2.8c-0.9,0.6-1.6,1.2-1.6,2.5
			c0.1,8.6,0,17.3,0,25.9c0,0.5,0,1,0,1.6c0.9-0.3,1.9,0.5,2.2-0.9c0-0.1,0.5-0.2,0.7-0.3c1.1-0.5,2.2-1,3.2-1.6
			c1.4-0.8,2.7-1.7,4-2.6c0.5-0.3,1-0.8,1.6-1c1-0.5,2.4-0.6,3-1.3c0.8-1.1,2.2-1,3.1-1.9c0.6-0.6,1.6-0.8,2.3-1.3
			c1-0.6,1.9-1.3,2.9-1.9c0.9-0.5,1.8-0.9,2.6-1.4c1-0.6,2-1.2,3-1.8c0.8-0.5,1.6-0.9,2.4-1.4c1-0.6,1.9-1.2,2.9-1.8
			c1-0.5,2.1-0.9,3.1-1.5c1.1-0.6,2.1-1.2,3.1-1.9c0.9-0.6,1.7-1.2,2.6-1.7c1.3-0.8,2.7-1.7,4.1-2.4c1-0.5,2.1-0.9,3.1-1.3
			c0.1,0,0.1-0.2,0.2-0.2c1.3-0.9,2.6-1.9,3.9-2.7c1.5-0.9,3.2-1.3,4.5-2.4c1.2-0.9,2.5-1.6,3.9-2.1c0.1,0,0.3-0.1,0.4-0.1
			c0.7-1.1,1.6-1.8,3-2.1c0.8-0.2,1.6-0.8,2.4-1.2c1-0.6,2-1.1,2.9-1.9c0.8-0.6,1.6-0.9,2.5-1.3c1-0.4,1.9-1.2,2.9-1.9
			c0.4-0.3,0.7-0.7,1.2-0.9c1.1-0.5,2.2-0.9,3.2-1.3c0.1,0,0.2-0.1,0.2-0.1c0.9-0.6,1.8-1.3,2.8-1.9c0.6-0.4,1.2-0.7,1.7-1.1
			c1-0.6,2.1-1.2,3.1-1.9c1.2-0.8,2.4-1.6,3.7-2.3c1.1-0.6,2.3-0.9,3.4-1.3c0.1,0,0.2-0.1,0.2-0.1c1.3-1,2.4-2.3,3.9-2.8
			c1.7-0.5,1.7-1.5,1.7-2.7c0-23.2,0-46.4,0-69.6c0-0.5,0-1,0-1.5c-0.4,0-0.6-0.1-0.7-0.1c-1.5,0.7-3,1.4-4.4,2.2
			c-0.1,0-0.1,0.1-0.2,0.2c-0.9,0.6-1.8,1.3-2.7,1.9c-0.9,0.5-1.9,0.9-2.9,1.4c-0.6,0.3-1.3,0.7-1.9,1.1c-1.4,0.9-2.8,1.9-4.3,2.8
			c-0.9,0.5-2.2,0.6-2.9,1.3c-0.7,0.7-1.3,0.8-2.1,1.1c-0.8,0.3-1.7,0.7-2.3,1.3c-0.8,0.7-1.5,1.5-2.6,1.9c-0.8,0.3-1.4,0.9-2.1,1.3
			c-1,0.6-1.9,1.2-2.9,1.7c-1,0.5-2.2,0.8-3.1,1.4c-2,1.3-3.8,2.9-5.9,3.9c-1.3,0.6-2.4,1.3-3.6,2c-0.8,0.4-1.5,0.9-2.3,1.3
			c-0.9,0.5-1.7,1-2.5,1.6c-0.9,0.5-1.7,1.1-2.6,1.6c-1,0.5-2.2,0.8-3.2,1.4c-1,0.5-2,1.3-2.9,1.9c-0.4,0.3-0.6,0.7-1,0.9
			c-1.3,0.8-2.7,1.4-4,2.2c-0.6,0.3-1.2,0.8-1.9,1.1c-1,0.5-2.1,0.8-3.1,1.3c-1.1,0.6-2.4,1.1-3.1,2c-0.7,0.8-1.9,0.7-2.3,1.4
			c-0.7,1-1.4,0.7-2.3,0.7C180.7,179.7,180.7,175.1,180.7,170.6z M44.9,97.7c0,0.6,0,1.1,0,1.6c0,37.8,0,75.6,0,113.4
			c0,0.3,0,0.6,0,1c0,0.9,0.4,1.4,1.3,1.6c1,0.3,1.9,0.9,2.8,1.5c0.9,0.6,1.6,1.7,2.9,1.7c0.2,0,0.4,0.1,0.5,0.2
			c0.9,1.1,2.3,1.3,3.4,2c0.3,0.2,0.6,0.4,0.9,0.6c1.3,0.8,2.6,1.6,3.9,2.5c0.9,0.6,1.9,1.1,2.8,1.7c0.9,0.5,1.9,1.1,2.9,1.5
			c1,0.5,2.1,0.8,3,1.4c1.3,0.8,2.4,2.1,3.8,2.7c1.5,0.6,2.8,1.3,4.1,2.2c1.8,1.2,3.9,2.2,5.8,3.3c0.4,0.2,0.6,0.8,1,0.9
			c1.1,0.5,2.2,0.8,3.3,1.3c0.1,0,0.2,0.1,0.2,0.1c0.5,1.3,2.1,0.8,2.9,1.9c0.5,0.7,1.7,0.8,2.5,1.3c0.9,0.6,1.7,1.2,2.5,1.9
			c0.5,0.4,1,0.8,1.6,1c1.1,0.5,2.2,0.8,3.2,1.4c1.1,0.6,2,1.3,3,2c0.8,0.5,1.7,0.9,2.5,1.4c0.9,0.6,1.7,1.2,2.6,1.8
			c0.6,0.4,1.2,0.8,1.8,1.1c1,0.5,2,0.8,3,1.3c1.1,0.6,2.2,1.2,3,2.1c0.6,0.7,1.3,1,2.1,1.1c0.1,0,0.2,0.1,0.3,0.2
			c0.9,0.6,1.9,1.2,2.8,1.7c0.9,0.5,1.8,0.8,2.6,1.3c1,0.6,2,1.3,2.9,1.9c0.8,0.5,1.6,1,2.4,1.4c1,0.6,1.9,1.2,2.9,1.8
			c1,0.5,2.2,0.8,3.1,1.4c1.3,0.8,2.5,2,3.9,2.8c1.5,0.9,3.1,1.5,4.6,2.3c0.1,0.1,0.3,0.1,0.3,0.2c0.3,1.3,1.3,0.7,2.2,0.8
			c0-0.6,0-1.2,0-1.7c0-13.3,0-26.6,0-39.9c0-0.6,0.1-1.5-0.2-1.9c-0.7-0.9-1.6-1.6-2.6-2.2c-1-0.6-2.2-0.9-3.3-1.3
			c-0.1,0-0.2-0.2-0.3-0.2c-0.4-0.3-0.9-0.6-1.3-0.8c-0.2-0.1-0.6,0-0.6-0.2c-0.6-1.2-2-1.2-3-2c-0.7-0.6-1.6-0.8-2.4-1.3
			c-0.9-0.6-1.8-1.2-2.7-1.9c-0.5-0.3-1-0.8-1.5-1c-1-0.5-2.2-0.8-3.2-1.3c-0.9-0.5-1.7-1.3-2.5-1.9c-0.5-0.4-1.1-0.6-1.8-1.1
			c-0.1,0.9-0.2,1.6-0.2,2.4c0,3.4,0,6.9,0,10.3c0,0.6-0.2,1.3-0.3,2c-1.6-1-3-2-4.4-2.8c-0.9-0.5-2-0.8-3-1.4
			c-1.6-0.9-3.1-1.9-4.6-2.9c-0.4-0.3-0.8-0.7-1.2-0.9c-1.1-0.5-2.2-0.9-3.3-1.3c-0.1,0-0.2-0.1-0.2-0.1c-0.3-1.4-2.2-0.6-2.6-1.9
			c-2.1-0.3-3.3-2.1-5-3c-1.3-0.7-2.6-1.6-3.9-2.3c-1-0.5-2.2-0.9-3.3-1.3c-0.1,0-0.1-0.1-0.2-0.2c-0.9-0.6-1.8-1.3-2.8-1.9
			c-0.8-0.5-1.7-0.8-2.5-1.3c-1.5-0.9-2.9-1.9-4.4-2.8c-0.7-0.4-1.3-0.8-2-1.1c-1-0.5-2.2-0.9-3.1-1.5c-1.1-0.7-2.1-1.5-3.4-2.4
			c-0.5-3.4-0.2-56.7,0.4-57.8c0.7,0.6,1.3,1.4,2.1,1.7c1.4,0.5,2.7,1.3,3.9,2.1c1.8,1.3,3.9,2.2,5.8,3.3c0.4,0.3,0.8,0.7,1.2,0.9
			c1,0.5,2.1,0.9,3.2,1.3c0.1,0,0.2,0.2,0.3,0.3c0.4,0.3,0.7,0.5,1.1,0.7c0.3,0.1,0.8,0.1,0.9,0.2c0.5,1.4,2,1,2.9,1.9
			c0.6,0.6,1.7,0.8,2.5,1.3c0.9,0.6,1.7,1.3,2.6,1.9c0.5,0.4,1,0.8,1.5,1c1.1,0.5,2.5,0.6,3.2,1.4c0.9,1.1,2.3,1,3.2,1.9
			c0.6,0.6,1.7,0.7,2.2,1.3c0.9,1.1,2.2,1.1,3.2,1.9c0.7,0.6,1.6,0.9,2.4,1.3c1.2,0.7,2.3,1.3,3.5,2c0.2,0.1,0.4,0.1,0.6,0.2
			c1,0.7,1.9,1.5,2.9,2.3c0.1-0.1,0.3-0.2,0.4-0.3c0,0.5,0.1,1.1,0.1,1.6c0,3.8,0,7.6,0,11.4c0,0.8-0.3,1.6,0.8,2
			c0.6,0.2,1,0.8,1.5,1.1c1.6,1,3.2,1.9,4.8,2.9c0.7,0.4,1.5,0.7,2.2,1.2c0.9,0.6,1.8,1.4,2.8,2c1,0.6,2.2,0.9,3.3,1.3
			c0.1,0,0.3,0.1,0.4,0.2c1.5,2,4.1,2.4,6,3.9c0.4,0.3,0.8,0.7,1.3,1c0.7,0.3,1.4,0.5,2.3,0.8c0.1-0.6,0.2-1.3,0.2-2
			c0-10.7,0-21.4,0-32.1c0-3,0-6,0-9c0-0.4-0.2-1.1-0.5-1.3c-1.4-0.8-2.6-2.1-4.4-2.3c-0.1,0-0.2-0.2-0.4-0.3
			c-0.4-0.2-0.7-0.5-1.2-0.7c-0.2-0.1-0.7,0-0.8-0.2c-0.7-1.2-2.1-1.3-3.1-2c-0.7-0.5-1.7-0.7-2.4-1.3c-1.6-1.2-3-2.6-5-3
			c-0.2,0-0.3-0.2-0.4-0.3c-1-0.6-1.9-1.2-2.9-1.8c-0.8-0.5-1.7-1-2.5-1.5c-0.9-0.5-1.7-1.1-2.6-1.6c-0.9-0.5-1.9-1-2.8-1.5
			c-0.9-0.5-1.7-1.4-2.7-1.7c-1.4-0.4-2.6-1.2-3.7-2.1c-0.7-0.6-1.8-0.7-2.5-1.3c-0.8-0.6-2.2-0.8-2.4-1.2c-0.6-1.4-2.1-0.8-3-1.8
			c-1-1.2-3-1.7-4.5-2.5c-0.5-0.3-1-0.8-1.5-1.1c-0.9-0.6-1.8-1.3-2.8-1.7c-1.1-0.5-2.2-0.8-3.3-1.3c-0.9-0.5-1.6-1.2-2.4-1.8
			c-0.6-0.4-1.1-0.8-1.7-1.1c-1-0.5-2.1-1-3.1-1.5c-0.5-0.3-1.3-0.5-1.5-0.9c-0.7-1.3-2.3-1-3.3-1.9c-0.8-0.8-2-1.2-3-1.8
			c-1.4-0.8-2.7-1.7-4-2.5c-1-0.6-2.1-1-3.2-1.6c-0.8-0.4-1.5-1-2.2-1.5c-1.1-0.7-2.2-1.3-3.3-2c-1.3-0.8-2.6-1.7-4-2.4
			c-1-0.5-2.2-0.9-3.3-1.3c-0.1,0-0.1-0.1-0.2-0.1c-1.6-1-3.2-2-4.8-3.1c-0.2-0.1-0.4-0.2-0.6-0.3c-1.5-0.9-3-1.9-4.6-2.8
			C45.6,97.6,45.3,97.7,44.9,97.7z"/>
		<path class="st0" d="M100.9,89.6c1.1,0.9,2.1,1.7,3.1,2.6c0.1,0.1,0.3,0.1,0.4,0.1c1.5,0.2,2.6,1.3,3.9,2c1.2,0.6,2.2,1.4,3.3,2.1
			c0.7,0.5,2,0.7,2.9-0.5c0.6-0.7,1.6-0.9,2.4-1.4c1-0.6,1.9-1.3,2.9-1.9c0.1-0.1,0.3-0.2,0.4-0.1c1.4,0.2,2-1.1,3-1.6
			c1.2-0.5,2.3-1.2,3.4-1.8c0.6-0.3,1.1-0.7,1.6-1c1.3-0.8,2.6-1.6,4-2.2c1.4-0.6,2.7-1.7,4.2-2.1c0.4-0.1,0.7-0.6,1-0.9
			c1.3-1,2.8-1.7,4.3-2.4c1.4-0.7,2.6-2,4-2.7c0.8-0.4,1.6-0.6,2.5-1.1c1.1-0.6,1.9-1.3,2.8-2c0.8-0.7,2-0.9,3-1.4
			c1.1-0.5,2.1-1.2,3.1-1.8c0.6-0.4,1-0.9,1.6-1.1c1-0.5,2.1-0.8,3.1-1.3c0.6-0.3,1-0.7,1.5-1c0.9-0.6,1.7-1.3,2.6-1.9
			c0.2-0.1,0.6,0,0.8-0.1c0.4-0.2,0.8-0.4,1.1-0.7c0.1-0.1,0.2-0.3,0.4-0.3c2-0.5,3.6-1.8,5.3-3c1.4-1,3.1-1.6,4.6-2.4
			c1-0.5,1.8-1.2,2.8-1.8c0.1-0.1,0.1-0.1,0.2-0.2c1.1-0.5,2.1-0.9,3.1-1.4c0.5-0.2,0.9-0.6,1.4-1c0.9-0.6,1.8-1.3,2.8-1.9
			c0.4-0.2,1.2-0.2,1.6,0c1.3,0.9,2.4,1.9,3.7,2.8c0.7,0.5,1.6,0.8,2.4,1.2c1,0.6,1.9,1.3,2.9,1.9c0.1,0,0.1,0.1,0.2,0.2
			c1.1,0.4,2.3,0.8,3.3,1.3c0.4,0.2,0.6,0.7,1,0.9c0.9,0.7,1.9,1.4,2.9,2c0.7,0.4,1.5,0.8,2.3,1.2c1.6,0.8,3.3,1.4,4.8,2.4
			c1.3,0.8,2.4,1.9,3.8,2.7c1,0.6,2.4,0.7,3.2,1.5c0.9,0.9,2.4,0.6,3,1.8c0.3,0.5,1,0.7,1.5,0.9c1,0.5,2.1,0.9,3.1,1.5
			c1.4,0.9,2.7,1.9,4,2.8c0.2,0.1,0.5,0.2,0.7,0.3c0.5,0.1,1.3-0.1,1.3,0.8c0,0.1,0.1,0.2,0.2,0.2c1.4-0.3,2,1.1,3.1,1.3
			c0.4,0.1,0.8,0.6,1.2,0.9c1,0.7,2,1.4,3,2c1.6,0.9,3.2,1.5,4.8,2.4c0.9,0.5,1.7,1.2,2.7,1.8c0.8,0.5,1.7,0.9,2.5,1.4
			c0.7,0.4,0.7,0.5,0,1.1c-1.3,1-2.7,1.6-4.2,2.3c-1.4,0.7-2.6,1.9-3.9,2.8c-0.8,0.5-1.7,0.8-2.5,1.3c-1,0.6-1.9,1.2-2.9,1.8
			c-0.2,0.1-0.4,0.2-0.6,0.3c-0.6,0.2-1.5-0.1-1.6,0.9c0,0.1-0.1,0.1-0.2,0.2c-1.1,0.4-2.2,0.8-3.2,1.3c-0.4,0.2-0.8,0.6-1.2,0.9
			c-0.9,0.7-1.8,1.3-2.8,1.9c-0.8,0.5-1.6,0.8-2.4,1.3c-1,0.7-2.4,0.8-3.1,2c-0.1,0.1-0.3,0.1-0.5,0.2c-1.8,0.6-3.5,1.4-4.8,2.9
			c-0.1,0.1-0.1,0.1-0.2,0.2c-1.1,0.4-2.2,0.8-3.3,1.3c-1,0.5-1.8,1.2-2.7,1.8c-0.8,0.5-1.6,0.9-2.4,1.4c-1.4,0.9-2.8,1.8-4.1,2.7
			c-0.1,0.1-0.2,0.3-0.3,0.3c-1.1,0.5-2.2,0.8-3.2,1.3c-1.4,0.7-2.6,1.6-3.9,2.4c-0.8,0.5-1.5,1.2-2.4,1.7c-1.5,0.8-3.1,1.5-4.7,2.3
			c-1,0.5-1.8,1.3-2.8,1.8c-0.8,0.5-1.8,0.8-2.6,1.3c-0.9,0.5-1.7,1.2-2.6,1.8c-0.1,0-0.1,0.2-0.2,0.2c-1.1,0.4-2.2,0.8-3.2,1.3
			c-0.7,0.3-1.3,0.9-2,1.3c-1.1,0.6-2.3,1.2-3.4,1.8c-0.5,0.3-1,0.7-1.4,1c-0.9,0.6-1.8,1.3-2.7,1.9c-0.1,0.1-0.2,0.1-0.2,0.1
			c-1.1,0.4-2.3,0.7-3.3,1.3c-1.3,0.7-2.6,1.7-3.8,2.5c-0.3,0.2-0.6,0.3-0.9,0.5c-1.1,0.6-2.2,1.3-3.3,1.9c-0.9,0.5-1.8,0.9-2.7,1.4
			c-1,0.6-2,1.1-2.9,1.8c-0.7,0.6-2.6,0.5-3.2-0.3c-0.1-0.1-0.1-0.3-0.2-0.3c-1.1-0.4-2.3-0.7-3.3-1.3c-1-0.5-1.8-1.2-2.7-1.8
			c-0.6-0.4-1.1-0.8-1.7-1.1c-1-0.5-2-0.9-3-1.4c-0.5-0.2-0.9-0.6-1.3-0.9c-0.9-0.6-1.8-1.4-2.8-1.9c-1-0.5-2.1-0.9-3.2-1.4
			c-0.6-0.3-1.1-0.7-1.6-1.1c-1-0.7-2-1.3-3-2c-0.7-0.4-0.7-0.7,0-1.2c1.4-1,3-1.6,4.5-2.4c1.4-0.7,2.5-1.9,3.7-2.8
			c0.7-0.5,1.6-0.7,2.3-1.2c1-0.9,2.3-0.9,3.3-1.9c0.5-0.5,1.6-0.9,2.5-1.2c1.1-0.3,1.7-1.2,2.6-1.7c1-0.6,2-1.1,3-1.6
			c1.1-0.6,2.1-1.3,3.2-1.9c0.9-0.5,1.8-0.9,2.6-1.4c0.9-0.5,1.8-1.2,2.8-1.7c0.8-0.5,1.6-0.9,2.4-1.4c1-0.6,2-1.2,3-1.8
			c0.1-0.1,0.2-0.2,0.3-0.2c2.7-0.4,4.3-2.6,6.7-3.5c1.5-0.6,2.6-1.8,4-2.7c0.7-0.4,1.6-0.1,2.2-1c0.5-0.7,1.8-0.9,2.7-1.4
			c0.6-0.3,1.2-0.7,1.8-1.1c1.2-1,2.6-1.7,4.1-2.1c0.5-0.1,0.9-0.7,1.4-1c1.5-1,3.1-2,4.7-2.9c1.5-0.9,3.4-1.3,4.5-2.5
			c0.9-0.9,2.3-0.4,2.9-1.8c0.3-0.7,1.6-0.9,2.4-1.3c0.2-0.1,0.3-0.3,0.5-0.5c-0.2-0.2-0.4-0.4-0.6-0.5c-1.2-0.2-2-0.9-2.6-1.9
			c0-0.1-0.1-0.1-0.2-0.1c-1.1-0.4-2.3-0.7-3.3-1.3c-1.4-0.7-2.7-1.7-4-2.5c-0.7-0.5-1.4-1-2,0c-0.1,0.1-0.1,0.3-0.3,0.3
			c-1,0.4-2.1,0.8-3.1,1.3c-0.5,0.2-0.9,0.6-1.4,1c-1.9,1.5-4.6,1.8-6.1,3.9c-0.1,0.1-0.2,0.1-0.4,0.2c-1.1,0.4-2.3,0.7-3.3,1.3
			c-0.9,0.5-1.7,1.3-2.6,1.9c-0.7,0.5-1.6,0.8-2.4,1.2c-1.5,0.9-2.9,1.9-4.4,2.8c-1,0.6-2.2,1-3.2,1.5c-1,0.5-1.9,1.2-2.8,1.7
			c-0.2,0.1-0.4,0.2-0.6,0.3c-0.9,0.5-1.8,0.9-2.7,1.4c-1.2,0.6-2.4,1.3-3.5,2c-0.5,0.3-1,0.6-1.4,0.9c-0.9,0.6-1.8,1.3-2.8,1.8
			c-0.8,0.5-1.6,1-2.5,1.3c-1.2,0.4-2.1,1-2.7,2c0,0.1-0.1,0.1-0.2,0.2c-1.1,0.4-2.3,0.8-3.3,1.3c-0.9,0.5-1.7,1.1-2.6,1.7
			c-0.9,0.5-1.8,0.9-2.6,1.5c-1.4,0.9-2.7,1.9-4.1,2.9c-0.1,0.1-0.2,0.1-0.4,0.2c-1.1,0.4-2.3,0.7-3.3,1.3c-1.4,0.8-2.5,1.9-3.8,2.7
			c-1,0.6-2.1,1-3.1,1.6c-0.9,0.4-1.7,0.9-2.6,1.4c-0.8,0.5-1.4,1.1-2.2,1.5c-0.4,0.2-1-0.2-1.4-0.3c-0.1,0-0.1-0.3-0.2-0.3
			c-1.1-0.5-2.3-0.7-3.2-1.4c-1.3-0.9-3.2-1.1-4.1-2.6c-0.1-0.1-0.2-0.2-0.4-0.3c-1.3-0.7-2.6-1.5-3.9-2.1c-1.6-0.8-3.3-1.5-4.9-2.4
			c-1.3-0.8-2.5-1.8-3.8-2.7c-0.1-0.1-0.1-0.1-0.2-0.1c-1.5-0.5-2.8-1.2-4-2.2c-0.8-0.7-2-0.8-3-1.3c-0.6-0.3-1-0.7-1.6-1
			c-1.6-1-3.2-2-4.8-3c-0.9-0.5-1.8-0.8-2.7-1.3c-1-0.5-1.9-1.2-2.8-1.8c-0.8-0.5-1.6-0.9-2.4-1.3c-1-0.6-1.9-1.3-2.9-1.9
			c-0.2-0.1-0.6,0-0.8-0.2c-0.4-0.2-0.8-0.5-1.2-0.8c-0.2-0.1-0.4-0.3-0.6-0.3c-1.3,0-1.9-1.2-2.9-1.7c-0.8-0.5-1.6-1-2.4-1.3
			c-1.3-0.4-2-1.4-3-2.1c-0.9-0.7-2.1-0.9-3.1-1.4c-1.3-0.7-2.6-1.6-3.8-2.4c-0.1-0.1,0-0.5,0.1-0.6c0.6-0.4,1.3-0.8,1.9-1.2
			c1.1-0.7,2.2-1.4,3.3-2c0.8-0.5,1.7-0.8,2.5-1.3c1-0.6,2-1.3,3.1-1.9c1.5-0.8,3.5-1.3,4.5-2.5c0.9-1,2.5-0.4,3-1.8
			c0.1-0.3,1.5-0.7,2.3-1.1c1.1-0.6,2.1-1.1,3-2c0.6-0.6,1.6-0.9,2.4-1.3c1.1-0.4,2.3-0.8,3-2c0.1-0.2,0.5-0.1,0.8-0.2
			c0.4-0.2,0.8-0.5,1.2-0.8c0.1-0.1,0.2-0.2,0.3-0.3c1.1-0.4,2.2-0.8,3.3-1.3c0.5-0.2,1-0.6,1.5-1c0.8-0.6,1.6-1.3,2.5-1.9
			c0.7-0.5,1.6-0.8,2.4-1.2c1.1-0.6,2.1-1.3,3.2-1.9c1-0.5,2.1-0.9,3.2-1.5c0.5-0.3,0.9-0.6,1.4-1c0.9-0.6,1.8-1.3,2.7-2
			c0.1-0.1,0.3-0.1,0.4-0.1c1.1-0.4,2.3-0.7,3.3-1.3c1.4-0.8,2.6-1.9,3.9-2.8c0.7-0.5,1.6-0.7,2.2-1.3c0.9-0.9,2.4-0.8,3.2-1.9
			c0.4-0.6,1.8,0,2.2-1.2c2,0.1,2.9-1.9,4.6-2.5c1.4-0.4,2.5-1.6,4-2.1c0.7-0.3,1.3-1.1,1.9-1.6c0.1-0.1,0.3-0.2,0.5-0.3
			c2.6-0.9,5-2.2,7-4.1c0.8-0.7,2.2-0.9,3.2-1.4c0.9-0.4,1.7-1,2.6-1.5c0.8-0.5,1.6-1.1,2.4-1.6c0.9-0.5,1.8-1,2.7-1.5
			c1.1-0.7,2.2-1.3,3.3-1.9c1-0.6,1.9-1.1,3-0.9c0.6,0.1,1.1,0.5,1.7,0.8c0.2,0.1,0.3,0.2,0.5,0.2c1.9,0.6,3.5,1.7,5,3
			c0.6,0.5,1.3,0.8,2.1,1.2c0.9,0.4,1.9,0.7,2.8,1.2c0.9,0.5,1.8,1.3,2.6,1.9c0.1,0.1,0.2,0.1,0.4,0.2c0.9,0.4,1.8,0.8,2.6,1.2
			c1.2,0.7,2.4,1.4,3.6,2.1c1.2,0.7,2.5,1.4,3.7,2.2c0.1,0.1,0,0.7-0.2,0.8c-1.5,0.8-3,1.4-4.4,2.3c-1.4,0.9-2.6,2-4,2.9
			c-1,0.6-2.1,0.9-3.1,1.4c-0.9,0.4-1.8,0.8-2.7,1.3c-1,0.6-1.9,1.2-2.8,1.8c-1,0.6-1.9,1.4-2.8,2c-0.8,0.5-1.7,0.8-2.5,1.3
			c-1,0.6-1.9,1.2-2.9,1.8c-0.8,0.5-1.9,0.7-2.4,1.4c-0.8,1-2.5,0.5-3,1.9c-0.1,0.2-0.6,0.1-0.9,0.2c-0.4,0.2-0.7,0.4-1,0.6
			c-0.1,0.1-0.1,0.3-0.2,0.3c-1.1,0.4-2.2,0.8-3.2,1.3c-0.6,0.3-1.3,0.6-1.8,1.1c-0.9,1.1-2.2,1.5-3.4,2c-0.8,0.4-1.5,1.1-2.3,1.7
			c-0.1,0.1-0.2,0.2-0.3,0.3c-1.1,0.4-2.2,0.8-3.2,1.3c-1.3,0.7-2.5,1.5-3.8,2.3c-1,0.6-2.2,1.2-3.1,1.9c-1.4,1.1-3.3,1.2-4.5,2.8
			c-0.5,0.7-1.6,1.1-2.4,1.3c-1.3,0.3-2,1.2-2.9,1.8c-0.9,0.7-2.1,0.9-3,1.6c-1,0.7-2.3,0.8-3.2,1.8c-0.6,0.6-1.6,0.9-2.4,1.3
			C102.5,88.6,101.7,89.2,100.9,89.6z"/>
		<path class="st0" d="M180.7,170.6c0,4.6,0,9.1,0,13.7c0.9,0,1.6,0.4,2.3-0.7c0.4-0.7,1.6-0.5,2.3-1.4c0.8-0.9,2-1.5,3.1-2
			c1-0.5,2.1-0.9,3.1-1.3c0.7-0.3,1.3-0.7,1.9-1.1c1.3-0.7,2.7-1.4,4-2.2c0.4-0.2,0.6-0.7,1-0.9c0.9-0.7,1.9-1.4,2.9-1.9
			c1-0.5,2.2-0.9,3.2-1.4c0.9-0.4,1.7-1,2.6-1.6c0.8-0.5,1.7-1,2.5-1.6c0.8-0.5,1.5-0.9,2.3-1.3c1.2-0.7,2.3-1.4,3.6-2
			c2.1-0.9,3.9-2.6,5.9-3.9c1-0.6,2.1-0.9,3.1-1.4c1-0.5,1.9-1.1,2.9-1.7c0.7-0.4,1.4-1,2.1-1.3c1.1-0.4,1.8-1.2,2.6-1.9
			c0.6-0.6,1.5-1,2.3-1.3c0.8-0.2,1.4-0.4,2.1-1.1c0.7-0.7,2-0.8,2.9-1.3c1.5-0.9,2.9-1.9,4.3-2.8c0.6-0.4,1.2-0.7,1.9-1.1
			c1-0.5,2-0.8,2.9-1.4c0.9-0.5,1.8-1.2,2.7-1.9c0.1-0.1,0.1-0.1,0.2-0.2c1.5-0.7,2.9-1.5,4.4-2.2c0.1-0.1,0.4,0,0.7,0.1
			c0,0.5,0,1,0,1.5c0,23.2,0,46.4,0,69.6c0,1.3,0.1,2.3-1.7,2.7c-1.4,0.4-2.6,1.8-3.9,2.8c-0.1,0.1-0.1,0.1-0.2,0.1
			c-1.1,0.4-2.3,0.7-3.4,1.3c-1.3,0.7-2.5,1.5-3.7,2.3c-1,0.6-2.1,1.3-3.1,1.9c-0.6,0.3-1.2,0.7-1.7,1.1c-0.9,0.6-1.8,1.3-2.8,1.9
			c-0.1,0.1-0.1,0.1-0.2,0.1c-1.1,0.4-2.2,0.8-3.2,1.3c-0.4,0.2-0.8,0.6-1.2,0.9c-0.9,0.7-1.8,1.5-2.9,1.9c-0.9,0.3-1.7,0.6-2.5,1.3
			c-0.9,0.7-1.9,1.3-2.9,1.9c-0.8,0.5-1.5,1-2.4,1.2c-1.3,0.3-2.2,1-3,2.1c-0.1,0.1-0.2,0.1-0.4,0.1c-1.4,0.5-2.7,1.1-3.9,2.1
			c-1.3,1-3,1.5-4.5,2.4c-1.4,0.8-2.6,1.8-3.9,2.7c-0.1,0-0.1,0.2-0.2,0.2c-1,0.4-2.1,0.8-3.1,1.3c-1.4,0.7-2.7,1.6-4.1,2.4
			c-0.9,0.6-1.7,1.2-2.6,1.7c-1,0.6-2,1.3-3.1,1.9c-1,0.5-2.1,0.9-3.1,1.5c-1,0.5-1.9,1.2-2.9,1.8c-0.8,0.5-1.6,0.9-2.4,1.4
			c-1,0.6-2,1.2-3,1.8c-0.9,0.5-1.8,0.9-2.6,1.4c-1,0.6-1.9,1.3-2.9,1.9c-0.8,0.5-1.8,0.7-2.3,1.3c-0.8,1-2.2,0.8-3.1,1.9
			c-0.6,0.8-2,0.9-3,1.3c-0.6,0.3-1.1,0.7-1.6,1c-1.3,0.9-2.7,1.8-4,2.6c-1,0.6-2.1,1.1-3.2,1.6c-0.2,0.1-0.7,0.1-0.7,0.3
			c-0.3,1.3-1.3,0.6-2.2,0.9c0-0.6,0-1.1,0-1.6c0-8.6,0-17.3,0-25.9c0-1.3,0.7-1.9,1.6-2.5c1.3-1,2.7-1.9,4.1-2.8
			c0.1-0.1,0.2-0.2,0.3-0.2c1.1-0.4,2.3-0.7,3.3-1.3c2-1.2,3.9-2.6,5.8-3.9c0.7-0.5,1.5-0.8,2.3-1.3c1.1-0.7,2.3-1.4,3.4-2
			c1-0.5,2.1-0.8,3.1-1.4c1.4-0.8,2.7-1.8,4-2.7c0.1-0.1,0.3-0.3,0.4-0.3c1.4-0.4,2.6-1.1,3.8-2.1c0.7-0.6,1.7-0.8,2.5-1.3
			c1.4-0.9,2.7-1.9,4.2-2.8c1-0.6,2.1-1,3.1-1.5c0.9-0.4,1.9-0.9,2.8-1.4c0.5-0.3,1-0.6,1.5-0.9c0.6-0.4,1.2-0.7,1.8-1.1
			c0.9-0.6,1.8-1.3,2.7-1.9c1-0.7,2.1-1.4,3.2-2c1-0.5,2.1-0.9,3.1-1.4c0.9-0.4,1.8-0.9,2.6-1.5c0.9-0.7,1.7-1.5,2.9-1.8
			c0.4-0.1,0.8-0.6,1.2-0.9c1.5-1.3,3.7-1.4,5-3c0.6-0.6,1.6-1,2.5-1.2c1.2-0.3,1.9-1.1,2.7-1.9c0.4-0.4,1.2-0.4,1.9-0.6
			c0-4.5,0-9.1,0-13.7c-0.8,0.1-1.8-0.4-2.2,0.8c0,0.1-0.3,0.2-0.4,0.3c-1.9,0.5-3.6,1.4-4.9,3c-0.1,0.1-0.2,0.1-0.4,0.2
			c-1.1,0.4-2.3,0.7-3.4,1.3c-1.4,0.8-2.6,2-3.9,2.8c-1.5,0.9-3.4,1.3-4.5,2.5c-0.9,0.9-2.5,0.4-2.9,1.9c0,0.1-0.1,0.1-0.2,0.1
			c-1.1,0.4-2.2,0.8-3.3,1.3c-0.4,0.2-0.7,0.6-1.1,0.9c-0.8,0.6-1.7,1.2-2.5,1.7c-0.8,0.5-1.9,0.8-2.6,1.5c-0.9,1-2.4,0.8-3.3,1.9
			c-0.4,0.5-1.6,0.8-2.4,1.1c-1.1,0.5-2,1.2-2.9,2c-0.8,0.7-2,1-3,1.5c-0.6,0.3-1.2,0.6-1.8,1c-0.9,0.6-1.7,1.3-2.6,1.9
			c-0.1,0.1-0.3,0.1-0.5,0.2c-1.8,0.6-3.6,1.4-4.7,3c-0.1,0.1-0.1,0.1-0.2,0.2c-1.1,0.4-2.2,0.8-3.3,1.3c-1,0.5-1.9,1.2-2.8,1.8
			c-0.5,0.4-1,0.8-1.5,1.1c-1.5,0.8-3.5,1.2-4.4,2.5c-0.8,1-2.6,0.3-2.8,1.9c0,0-0.2,0.1-0.2,0.1c-1.1,0.4-2.3,0.7-3.3,1.3
			c-0.6,0.3-1.1,0.9-1.7,1.3c-0.5,0.3-1.1,0.5-1.6,0.7c-0.2-0.5-0.5-0.9-0.5-1.4c0-23.5,0-46.9,0-70.4c0-0.6,0-1.1,0-1.5
			c1.2-0.9,2.3-1.7,3.4-2.4c1-0.6,2.1-0.9,3.2-1.3c0.9-0.4,1.8-1,2.8-1.5c1-0.6,2-1.1,3-1.7c1.3-0.9,2.6-1.9,3.9-2.8
			c0.1-0.1,0.1-0.2,0.2-0.2c1.1-0.4,2.2-0.8,3.3-1.3c1-0.5,1.9-1.1,2.8-1.7c0.5-0.4,0.9-0.9,1.5-1.2c1-0.5,2.2-0.9,3.2-1.4
			c0.8-0.4,1.5-1,2.3-1.4c1.1-0.6,2-1.5,3.3-1.9c1.4-0.4,2.5-1.7,3.7-2.6c0.1-0.1,0.1-0.3,0.2-0.3c1.1-0.4,2.3-0.8,3.3-1.3
			c1-0.5,1.9-1.2,2.8-1.9c0.6-0.4,1.1-0.8,1.8-1.1c1.8-0.8,3.4-1.9,5-3.1c0.9-0.7,2.3-0.9,3.4-1.4c1-0.5,1.8-1.3,2.7-1.8
			c0.8-0.5,1.7-0.9,2.6-1.3c1.6-1,3.2-2.1,4.9-3c0.9-0.5,1.9-0.8,2.7-1.3c0.9-0.5,1.8-1.3,2.7-1.8c0.8-0.5,2-0.7,2.5-1.4
			c0.8-1.1,2.5-0.5,2.9-1.9c0-0.1,0.2-0.1,0.2-0.1c2.1-0.5,3.7-1.9,5.4-3c1.4-0.9,3-1.6,4.5-2.5c1-0.6,1.8-1.4,2.9-1.9
			c1-0.6,2.2-0.9,3.3-1.3c0.2-0.1,0.4-0.2,0.5-0.3c1.5-0.9,2.9-1.9,4.4-2.8c0.6-0.4,1.3-0.7,2-1.1c1-0.6,2-1.3,3.1-1.9
			c0.3-0.2,0.8-0.2,1.3-0.3c0,0.5,0.1,0.9,0.1,1.3c0,8.8,0,17.5,0,26.3c0,1.2-0.2,2-1.7,2.6c-1.3,0.5-3.2,1-3.9,2.7
			c0,0.1-0.1,0.1-0.2,0.2c-1.1,0.4-2.3,0.7-3.4,1.3c-1,0.5-1.8,1.2-2.7,1.9c-0.5,0.3-0.9,0.7-1.4,0.9c-1,0.5-2.1,1-3.2,1.5
			c-0.6,0.3-1.1,0.6-1.6,1c-0.9,0.6-1.7,1.4-2.6,1.9c-0.8,0.4-1.6,0.7-2.4,1.1c-1.8,0.9-3.4,2.1-5,3.2c-0.9,0.6-2,0.8-3,1.3
			c-0.7,0.3-1.4,0.8-2.1,1.2c-1.2,0.7-2.4,1.3-3.6,2.1c-0.4,0.3-0.7,0.7-1.1,1c-0.9,0.7-1.9,1.3-2.9,2c-0.2,0.1-0.6,0-0.8,0.2
			c-0.4,0.2-0.8,0.5-1.2,0.8c-0.1,0.1-0.2,0.2-0.3,0.2c-2.1,0.5-3.7,1.9-5.4,3c-1.4,0.9-3.1,1.6-4.6,2.5c-0.9,0.5-1.8,1.3-2.7,1.9
			c-0.1,0.1-0.2,0.1-0.3,0.1c-1.8,0.2-3.1,1.4-4.6,2.3c-1.3,0.8-2.5,1.7-4,2.2c-0.7,0.2-1.2,0.9-1.8,1.3c-0.2,0.1-0.3,0.3-0.5,0.4
			c-1.1,0.5-2.2,0.8-3.2,1.4c-1.3,0.8-2.5,1.9-3.8,2.8C182.1,170.4,181.5,170.4,180.7,170.6z"/>
		<path class="st0" d="M44.9,97.7c0.4,0,0.8-0.1,1,0c1.5,0.9,3,1.8,4.6,2.8c0.2,0.1,0.4,0.2,0.6,0.3c1.6,1,3.2,2,4.8,3.1
			c0.1,0,0.1,0.1,0.2,0.1c1.1,0.4,2.2,0.8,3.3,1.3c1.4,0.7,2.6,1.6,4,2.4c1.1,0.7,2.2,1.3,3.3,2c0.8,0.5,1.5,1.1,2.2,1.5
			c1,0.6,2.1,1,3.2,1.6c1.4,0.8,2.7,1.7,4,2.5c1,0.6,2.2,1,3,1.8c1,0.9,2.5,0.6,3.3,1.9c0.3,0.5,1,0.7,1.5,0.9c1,0.5,2.1,1,3.1,1.5
			c0.6,0.3,1.2,0.7,1.7,1.1c0.8,0.6,1.6,1.3,2.4,1.8c1,0.5,2.2,0.8,3.3,1.3c1,0.5,1.9,1.1,2.8,1.7c0.5,0.3,1,0.8,1.5,1.1
			c1.5,0.8,3.4,1.3,4.5,2.5c0.9,1,2.4,0.4,3,1.8c0.2,0.4,1.6,0.6,2.4,1.2c0.7,0.6,1.8,0.7,2.5,1.3c1.1,0.9,2.3,1.7,3.7,2.1
			c1,0.3,1.8,1.1,2.7,1.7c0.9,0.5,1.9,1,2.8,1.5c0.9,0.5,1.7,1.1,2.6,1.6c0.8,0.5,1.7,1,2.5,1.5c1,0.6,1.9,1.2,2.9,1.8
			c0.1,0.1,0.3,0.3,0.4,0.3c2,0.4,3.5,1.9,5,3c0.7,0.5,1.6,0.7,2.4,1.3c1,0.7,2.4,0.7,3.1,2c0.1,0.2,0.5,0.1,0.8,0.2
			c0.4,0.2,0.8,0.4,1.2,0.7c0.1,0.1,0.3,0.3,0.4,0.3c1.8,0.2,3,1.4,4.4,2.3c0.3,0.2,0.5,0.8,0.5,1.3c0,3,0,6,0,9
			c0,10.7,0,21.4,0,32.1c0,0.7-0.1,1.4-0.2,2c-0.9-0.3-1.6-0.5-2.3-0.8c-0.5-0.2-0.9-0.6-1.3-1c-1.9-1.5-4.5-1.9-6-3.9
			c-0.1-0.1-0.2-0.1-0.4-0.2c-1.1-0.4-2.3-0.7-3.3-1.3c-1-0.5-1.8-1.4-2.8-2c-0.7-0.5-1.5-0.8-2.2-1.2c-1.6-0.9-3.2-1.9-4.8-2.9
			c-0.5-0.3-0.9-0.9-1.5-1.1c-1.1-0.4-0.8-1.3-0.8-2c0-3.8,0-7.6,0-11.4c0-0.5-0.1-1.1-0.1-1.6c-0.1,0.1-0.3,0.2-0.4,0.3
			c-0.9-0.8-1.9-1.5-2.9-2.3c-0.2-0.1-0.4-0.1-0.6-0.2c-1.2-0.7-2.3-1.4-3.5-2c-0.8-0.4-1.7-0.7-2.4-1.3c-1-0.8-2.4-0.8-3.2-1.9
			c-0.5-0.6-1.6-0.7-2.2-1.3c-0.9-0.9-2.3-0.9-3.2-1.9c-0.7-0.8-2.1-0.9-3.2-1.4c-0.5-0.2-1-0.6-1.5-1c-0.9-0.6-1.7-1.3-2.6-1.9
			c-0.8-0.5-1.9-0.7-2.5-1.3c-0.9-0.8-2.4-0.5-2.9-1.9c-0.1-0.2-0.6-0.1-0.9-0.2c-0.4-0.2-0.8-0.5-1.1-0.7c-0.1-0.1-0.2-0.2-0.3-0.3
			c-1.1-0.4-2.1-0.8-3.2-1.3c-0.5-0.2-0.8-0.7-1.2-0.9c-1.9-1.1-4-2-5.8-3.3c-1.3-0.9-2.5-1.6-3.9-2.1c-0.8-0.3-1.4-1.1-2.1-1.7
			c-0.6,1.1-0.9,54.3-0.4,57.8c1.3,0.9,2.3,1.8,3.4,2.4c1,0.6,2.1,1,3.1,1.5c0.7,0.3,1.4,0.7,2,1.1c1.5,0.9,2.9,1.9,4.4,2.8
			c0.8,0.5,1.7,0.8,2.5,1.3c1,0.6,1.9,1.2,2.8,1.9c0.1,0.1,0.1,0.1,0.2,0.2c1.1,0.4,2.2,0.8,3.3,1.3c1.3,0.7,2.6,1.6,3.9,2.3
			c1.7,0.9,2.9,2.7,5,3c0.3,1.3,2.3,0.5,2.6,1.9c0,0.1,0.1,0.1,0.2,0.1c1.1,0.4,2.2,0.8,3.3,1.3c0.4,0.2,0.8,0.6,1.2,0.9
			c1.5,1,3,2,4.6,2.9c0.9,0.5,2,0.8,3,1.4c1.4,0.8,2.8,1.8,4.4,2.8c0.1-0.7,0.3-1.3,0.3-2c0-3.4,0-6.9,0-10.3c0-0.7,0.1-1.4,0.2-2.4
			c0.7,0.4,1.3,0.7,1.8,1.1c0.9,0.6,1.6,1.4,2.5,1.9c1,0.6,2.1,0.9,3.2,1.3c0.6,0.3,1,0.7,1.5,1c0.9,0.6,1.8,1.3,2.7,1.9
			c0.8,0.5,1.7,0.7,2.4,1.3c0.9,0.8,2.4,0.7,3,2c0.1,0.1,0.4,0.1,0.6,0.2c0.5,0.2,0.9,0.5,1.3,0.8c0.1,0.1,0.2,0.2,0.3,0.2
			c1.1,0.4,2.3,0.7,3.3,1.3c1,0.6,1.9,1.3,2.6,2.2c0.3,0.4,0.2,1.2,0.2,1.9c0,13.3,0,26.6,0,39.9c0,0.5,0,1.1,0,1.7
			c-0.9,0-1.9,0.6-2.2-0.8c0-0.1-0.2-0.2-0.3-0.2c-1.6-0.8-3.2-1.4-4.6-2.3c-1.4-0.8-2.5-2-3.9-2.8c-1-0.6-2.1-0.9-3.1-1.4
			c-1-0.5-1.9-1.2-2.9-1.8c-0.8-0.5-1.6-0.9-2.4-1.4c-1-0.6-1.9-1.3-2.9-1.9c-0.8-0.5-1.8-0.9-2.6-1.3c-1-0.5-1.9-1.2-2.8-1.7
			c-0.1-0.1-0.2-0.2-0.3-0.2c-0.8-0.2-1.5-0.4-2.1-1.1c-0.8-0.9-1.9-1.5-3-2.1c-0.9-0.5-2-0.8-3-1.3c-0.6-0.3-1.2-0.7-1.8-1.1
			c-0.9-0.6-1.7-1.2-2.6-1.8c-0.8-0.5-1.7-0.9-2.5-1.4c-1-0.6-2-1.4-3-2c-1-0.5-2.2-0.9-3.2-1.4c-0.6-0.3-1-0.7-1.6-1
			c-0.9-0.6-1.7-1.3-2.5-1.9c-0.8-0.5-2-0.6-2.5-1.3c-0.8-1.1-2.4-0.5-2.9-1.9c0-0.1-0.1-0.1-0.2-0.1c-1.1-0.4-2.2-0.8-3.3-1.3
			c-0.4-0.2-0.6-0.7-1-0.9c-1.9-1.1-4-2-5.8-3.3c-1.3-0.9-2.6-1.6-4.1-2.2c-1.4-0.6-2.5-1.9-3.8-2.7c-0.9-0.6-2-0.9-3-1.4
			c-1-0.5-1.9-1-2.9-1.5c-1-0.5-1.9-1.1-2.8-1.7c-1.3-0.8-2.6-1.6-3.9-2.5c-0.3-0.2-0.6-0.4-0.9-0.6c-1.1-0.7-2.5-0.9-3.4-2
			c-0.1-0.1-0.3-0.2-0.5-0.2c-1.3,0-2-1.1-2.9-1.7c-0.9-0.6-1.8-1.2-2.8-1.5c-0.9-0.3-1.3-0.8-1.3-1.6c0-0.3,0-0.6,0-1
			c0-37.8,0-75.6,0-113.4C44.9,98.8,44.9,98.3,44.9,97.7z"/>
	</g>
</g>
<g id="Layer_2">
</g>
</svg>
